<?xml version="1.0" standalone="no"?>
<!DOCTYPE svg PUBLIC "-//W3C//DTD SVG 20010904//EN"
 "http://www.w3.org/TR/2001/REC-SVG-20010904/DTD/svg10.dtd">
<svg version="1.0" xmlns="http://www.w3.org/2000/svg"
 width="300.000000pt" height="267.000000pt" viewBox="0 0 300.000000 267.000000"
 preserveAspectRatio="xMidYMid meet">
<metadata>
Created by potrace 1.10, written by Peter Selinger 2001-2011
</metadata>
<g transform="translate(0.000000,267.000000) scale(0.100000,-0.100000)"
fill="#000000" stroke="none">
<path d="M1380 2490 c-412 -42 -785 -292 -964 -647 -86 -171 -119 -317 -119
-523 -1 -165 10 -233 59 -378 158 -471 629 -797 1149 -795 323 2 625 127 847
350 100 100 155 175 217 293 88 169 131 342 131 530 0 502 -315 937 -802 1108
-153 54 -356 79 -518 62z m330 -43 c14 -4 48 -12 75 -18 63 -15 175 -59 263
-103 250 -127 456 -361 546 -622 143 -411 49 -846 -250 -1164 -105 -111 -248
-204 -437 -284 -171 -72 -444 -91 -659 -45 -495 106 -861 509 -909 999 -20
205 13 409 96 585 19 40 32 55 43 53 24 -5 18 -53 -12 -97 -31 -44 -71 -164
-85 -251 -6 -36 -11 -121 -11 -190 1 -324 138 -614 395 -833 235 -201 558
-298 874 -262 87 10 238 53 318 91 174 83 366 242 458 379 22 33 43 62 47 65
15 11 88 169 111 241 35 106 50 213 49 360 -1 203 -58 393 -157 528 -135 183
-339 327 -568 402 -308 101 -683 76 -960 -62 -66 -33 -199 -123 -256 -171 -18
-16 -39 -27 -47 -24 -11 4 -14 -5 -14 -35 l0 -41 50 55 c189 207 596 344 920
308 159 -17 177 -28 47 -30 -189 -2 -316 -27 -466 -91 -106 -45 -251 -143
-273 -183 -9 -19 -9 -20 3 -11 168 133 317 204 499 238 104 20 311 21 421 1
352 -61 618 -270 720 -562 91 -261 72 -555 -51 -809 -144 -297 -394 -496 -734
-587 -69 -18 -107 -21 -261 -21 -164 0 -189 3 -280 28 -114 31 -254 94 -346
156 -88 59 -229 199 -289 286 -173 250 -227 567 -149 869 25 99 55 169 69 160
6 -3 10 4 10 17 0 13 9 38 20 56 11 18 20 35 20 37 0 3 -21 5 -46 5 -55 0 -50
17 7 26 40 7 40 7 19 26 -19 18 -29 44 -11 34 10 -7 65 61 75 91 4 13 10 22
14 21 4 0 39 30 79 69 157 152 383 267 608 308 79 14 358 15 415 2z"/>
<path d="M1390 2409 c-99 -9 -155 -20 -265 -55 -99 -31 -252 -114 -297 -161
l-33 -35 64 42 c190 126 405 190 636 190 208 0 344 -33 535 -131 132 -68 137
-69 72 -24 -53 36 -180 104 -204 109 -7 2 -20 6 -28 9 -44 19 -185 48 -255 53
-44 2 -93 6 -110 7 -16 2 -68 0 -115 -4z"/>
<path d="M1400 2179 c-52 -11 -99 -25 -105 -31 -7 -8 -3 -9 15 -4 66 17 193
27 270 21 213 -17 454 -117 564 -234 36 -37 46 -39 46 -7 0 30 -64 82 -192
155 -32 18 -58 34 -58 36 0 2 20 -3 43 -10 61 -18 158 -69 181 -94 15 -16 22
-18 27 -9 13 20 22 2 27 -53 3 -32 8 -46 13 -37 4 7 6 23 2 36 -5 21 -4 22 21
11 30 -14 32 -21 10 -55 -9 -13 -14 -27 -11 -31 10 -9 39 6 32 17 -3 5 -3 15
0 20 9 15 35 -8 29 -24 -3 -9 6 -16 26 -20 17 -3 29 -10 26 -15 -4 -5 10 -36
29 -68 47 -77 65 -141 65 -229 0 -246 -192 -457 -500 -548 -67 -20 -57 -10 40
40 56 29 100 64 177 140 105 106 130 142 157 233 33 111 12 304 -38 360 -18
19 -18 21 0 38 17 17 16 18 -12 24 -16 3 -32 4 -36 2 -8 -4 2 -35 31 -90 10
-21 24 -65 30 -98 32 -170 -9 -308 -128 -433 -69 -73 -125 -111 -244 -167
-155 -72 -237 -90 -412 -89 -110 1 -163 5 -200 17 -58 19 -74 14 -21 -8 86
-36 170 -49 326 -49 163 -1 219 7 355 51 346 111 552 375 505 650 -32 191
-171 358 -385 464 -165 81 -251 101 -445 105 -138 3 -181 0 -260 -17z"/>
<path d="M863 1948 c-11 -14 -45 -166 -93 -415 -36 -183 -38 -168 43 -290 l42
-63 150 0 c240 1 350 25 433 96 23 19 42 34 42 32 0 -2 -7 -28 -15 -58 -8 -30
-15 -59 -15 -63 0 -4 48 -6 107 -5 l106 3 22 115 c12 63 25 132 29 153 l7 37
97 0 c110 0 161 -11 188 -41 20 -22 22 -52 9 -166 -10 -89 -1 -103 61 -103 55
0 58 16 5 25 -48 8 -53 20 -41 86 31 164 -13 213 -202 225 -130 8 -137 3 -162
-112 -10 -43 -22 -89 -27 -102 -5 -13 -9 -31 -9 -42 0 -34 -28 -50 -85 -50
-44 0 -54 3 -58 20 -6 23 4 70 27 123 9 21 16 60 15 85 -1 26 3 65 9 87 6 22
25 121 42 220 17 99 34 183 38 186 4 3 115 3 247 -1 132 -3 242 -5 244 -4 1 2
-17 8 -40 15 -28 8 -123 12 -258 13 l-215 1 -7 -30 c-4 -16 -24 -121 -45 -232
-21 -112 -41 -203 -45 -203 -4 0 -11 9 -14 20 -7 21 -91 70 -120 70 -21 0 -19
-16 3 -25 9 -3 45 -25 80 -47 60 -41 62 -43 62 -86 0 -55 -26 -102 -57 -102
-13 0 -41 -11 -62 -25 -90 -60 -131 -69 -337 -73 l-191 -4 -28 33 c-15 18 -37
53 -48 76 l-21 43 28 172 c29 179 68 367 81 388 5 9 63 10 224 6 178 -4 228
-9 282 -25 89 -28 124 -65 124 -131 0 -56 -16 -77 -105 -143 -59 -44 -55 -60
7 -28 58 29 110 91 118 140 19 111 -60 178 -235 200 -122 16 -425 14 -437 -1z"/>
<path d="M783 1872 c-28 -18 -90 -217 -80 -257 3 -13 5 -8 6 13 1 42 35 144
67 201 25 45 27 55 7 43z"/>
<path d="M1243 1841 c20 -4 49 -19 63 -32 54 -50 8 -143 -83 -168 -47 -14
-223 -14 -223 -1 0 5 4 31 9 57 28 141 17 162 -13 29 -15 -62 -15 -71 -1 -92
15 -23 21 -24 126 -24 124 0 161 11 202 59 59 71 19 168 -73 176 -44 4 -44 4
-7 -4z"/>
<path d="M1870 1821 c0 -5 28 -11 63 -13 34 -2 80 -13 102 -24 36 -17 40 -23
43 -62 6 -84 -70 -122 -245 -122 l-86 0 6 36 c4 25 2 34 -6 31 -19 -6 -20 -36
-3 -62 16 -24 22 -25 114 -25 118 0 163 12 209 54 29 27 36 39 37 75 1 36 -4
47 -31 71 -18 16 -49 34 -70 39 -46 13 -133 14 -133 2z"/>
<path d="M479 1688 c-17 -72 -15 -200 5 -277 82 -308 399 -544 820 -611 101
-16 345 -13 450 5 292 51 568 218 702 425 46 72 78 140 64 140 -4 0 -13 -14
-19 -30 -29 -83 -137 -209 -239 -278 -176 -120 -362 -180 -582 -189 -281 -11
-534 68 -737 230 -41 32 -70 50 -64 39 17 -31 105 -100 189 -148 160 -92 326
-139 525 -150 83 -5 115 -10 107 -18 -6 -6 -79 -10 -198 -10 -177 1 -194 3
-317 34 -317 80 -525 221 -625 425 -61 124 -74 187 -67 338 4 70 5 127 3 127
-2 0 -10 -24 -17 -52z"/>
<path d="M691 1549 c1 -24 5 -55 9 -69 6 -16 7 -1 3 40 -7 76 -13 93 -12 29z"/>
<path d="M972 1544 c-15 -13 -29 -43 -41 -94 -33 -132 -34 -147 -11 -170 18
-18 32 -20 153 -20 148 0 192 13 239 68 38 45 44 94 18 147 -31 63 -68 78
-215 83 -106 4 -123 2 -143 -14z m294 -37 c36 -19 44 -34 44 -86 0 -44 -27
-83 -73 -108 -39 -20 -307 -33 -307 -15 0 9 14 75 46 211 5 23 5 23 132 19 92
-3 136 -9 158 -21z"/>
<path d="M2116 1532 c5 -4 26 -20 47 -36 l37 -27 0 -91 c0 -50 2 -89 5 -86 15
15 25 121 15 153 -12 38 -71 95 -97 95 -10 0 -13 -3 -7 -8z"/>
<path d="M588 765 c5 -11 18 -28 29 -36 19 -17 351 -134 359 -127 2 3 -15 10
-38 17 -24 7 -56 19 -73 26 -16 7 -73 28 -125 46 -60 20 -107 43 -129 63 -23
22 -30 25 -23 11z"/>
<path d="M1097 719 c13 -11 201 -57 328 -80 138 -24 441 -38 470 -21 14 7 -15
10 -106 11 -135 2 -420 38 -592 74 -59 13 -104 20 -100 16z"/>
<path d="M1151 545 c10 -9 243 -66 259 -62 8 2 -12 9 -45 17 -33 7 -91 21
-130 31 -70 19 -92 23 -84 14z"/>
</g>
</svg>
